<svg width="1512" height="242" viewBox="0 0 1512 242" fill="none" xmlns="http://www.w3.org/2000/svg">
    <g id="Featured">
        <g id="Featured_2">
        <mask id="path-1-outside-1_0_1" maskUnits="userSpaceOnUse" x="0" y="0" width="1512" height="242" fill="black">
            <rect fill="white" width="1512" height="242" />
            <path d="M45.2674 235.738H9.65273C4.64902 235.738 2 232.788 2 227.215V14.7851C2 8.55649 4.64902 6.26171 9.65273 6.26171H135.04C140.338 6.26171 142.987 9.21213 142.987 14.7851V50.1901C142.987 56.4187 140.632 58.7135 135.04 58.7135H57.6295C54.0974 58.7135 53.2144 60.0248 53.2144 63.6309V97.3967C53.2144 101.331 54.0974 102.314 57.6295 102.314H125.032C130.625 102.314 132.979 104.937 132.979 111.165V146.242C132.979 152.471 130.625 154.766 125.032 154.766H57.6295C54.0974 154.766 53.2144 156.077 53.2144 159.683V227.215C53.2144 233.444 50.8598 235.738 45.2674 235.738Z" />
            <path d="M160.937 50.1901V14.7851C160.937 8.55649 163.586 6.26171 168.59 6.26171H298.097C303.69 6.26171 305.75 8.55649 305.75 14.7851V50.1901C305.75 56.4187 303.69 58.7135 298.097 58.7135H168.59C162.997 58.7135 160.937 56.4187 160.937 50.1901ZM160.937 138.047V102.97C160.937 96.741 162.997 94.1185 168.59 94.1185H298.097C303.69 94.1185 305.75 96.741 305.75 102.97V138.047C305.75 143.62 303.69 146.57 298.097 146.57H168.59C163.586 146.57 160.937 143.62 160.937 138.047ZM160.642 227.215V191.81C160.642 185.581 162.703 183.286 168.295 183.286H298.097C303.69 183.286 306.044 185.581 306.044 191.81V227.215C306.044 232.788 303.395 235.738 298.097 235.738H168.295C163.291 235.738 160.642 232.788 160.642 227.215Z" />
            <path d="M429.297 2C484.044 2 521.719 37.0771 521.719 107.231V227.215C521.719 233.444 519.364 235.738 513.772 235.738H478.157C473.154 235.738 470.505 232.788 470.505 227.215V176.73C470.505 172.796 469.327 171.813 466.089 171.813H391.034C387.502 171.813 386.619 172.796 386.619 176.73V227.215C386.619 233.444 384.264 235.738 378.672 235.738H343.057C338.053 235.738 335.404 232.788 335.404 227.215V107.231C335.404 38.3884 373.374 2 429.297 2ZM391.034 119.361H466.089C469.327 119.361 470.505 118.05 470.505 114.444V109.198C470.505 74.7769 455.788 54.4518 428.414 54.4518C401.336 54.4518 386.619 74.7769 386.619 109.198V114.444C386.619 118.05 387.502 119.361 391.034 119.361Z" />
            <path d="M701.687 58.7135H655.182C651.944 58.7135 650.767 60.0248 650.767 63.6309V227.215C650.767 232.788 648.706 235.738 643.114 235.738H607.205C602.201 235.738 599.552 232.788 599.552 227.215V63.6309C599.552 60.0248 598.375 58.7135 595.137 58.7135H548.632C543.629 58.7135 540.98 55.7631 540.98 50.1901V14.7851C540.98 8.55649 543.629 6.26171 548.632 6.26171H701.687C707.279 6.26171 709.34 8.55649 709.34 14.7851V50.1901C709.34 55.7631 707.279 58.7135 701.687 58.7135Z" />
            <path d="M819.587 240C765.135 240 728.343 206.562 728.343 137.391V14.7851C728.343 8.55649 730.992 6.26171 735.995 6.26171H771.61C777.203 6.26171 779.557 8.55649 779.557 14.7851V132.802C779.557 168.207 793.98 187.548 821.353 187.548C848.432 187.548 863.443 168.207 863.443 132.802V14.7851C863.443 8.55649 866.092 6.26171 871.096 6.26171H906.71C912.303 6.26171 914.657 8.55649 914.657 14.7851V136.736C914.657 204.595 876.099 240 819.587 240Z" />
            <path d="M994.845 235.738H959.231C954.227 235.738 951.578 232.788 951.578 227.215V14.7851C951.578 8.55649 954.227 6.26171 959.231 6.26171H1026.63C1088.15 6.26171 1118.17 30.8485 1118.17 83.3003C1118.17 110.837 1106.69 130.835 1083.44 143.292L1128.47 225.248C1129.95 227.543 1130.53 229.51 1130.53 231.149C1130.53 234.099 1128.18 235.738 1123.18 235.738H1084.91C1076.67 235.738 1074.02 234.099 1069.61 225.904L1022.51 134.769C1022.22 134.441 1020.75 131.163 1020.75 129.523C1020.75 127.229 1022.81 125.917 1026.63 125.262C1049.3 122.311 1065.19 110.182 1065.19 88.8733C1065.19 66.5813 1051.65 56.0909 1025.46 56.0909H1007.21C1003.68 56.0909 1002.79 57.0744 1002.79 61.0083V227.215C1002.79 233.444 1000.44 235.738 994.845 235.738Z" />
            <path d="M1141.27 50.1901V14.7851C1141.27 8.55649 1143.92 6.26171 1148.92 6.26171H1278.43C1284.02 6.26171 1286.08 8.55649 1286.08 14.7851V50.1901C1286.08 56.4187 1284.02 58.7135 1278.43 58.7135H1148.92C1143.33 58.7135 1141.27 56.4187 1141.27 50.1901ZM1141.27 138.047V102.97C1141.27 96.741 1143.33 94.1185 1148.92 94.1185H1278.43C1284.02 94.1185 1286.08 96.741 1286.08 102.97V138.047C1286.08 143.62 1284.02 146.57 1278.43 146.57H1148.92C1143.92 146.57 1141.27 143.62 1141.27 138.047ZM1140.98 227.215V191.81C1140.98 185.581 1143.04 183.286 1148.63 183.286H1278.43C1284.02 183.286 1286.38 185.581 1286.38 191.81V227.215C1286.38 232.788 1283.73 235.738 1278.43 235.738H1148.63C1143.63 235.738 1140.98 232.788 1140.98 227.215Z" />
            <path d="M1324.86 6.26171H1397.27C1468.79 6.26171 1510 50.1901 1510 118.377C1510 189.843 1466.44 235.738 1392.27 235.738H1324.86C1319.86 235.738 1317.21 232.788 1317.21 227.215V14.7851C1317.21 8.55649 1319.86 6.26171 1324.86 6.26171ZM1368.42 63.6309V178.369C1368.42 181.975 1369.31 183.286 1372.84 183.286H1391.97C1434.36 183.286 1457.02 159.683 1457.02 120.017C1457.02 82.6446 1434.36 58.7135 1393.15 58.7135H1372.84C1369.31 58.7135 1368.42 60.0248 1368.42 63.6309Z" />
        </mask>
        <path d="M45.2674 235.738H9.65273C4.64902 235.738 2 232.788 2 227.215V14.7851C2 8.55649 4.64902 6.26171 9.65273 6.26171H135.04C140.338 6.26171 142.987 9.21213 142.987 14.7851V50.1901C142.987 56.4187 140.632 58.7135 135.04 58.7135H57.6295C54.0974 58.7135 53.2144 60.0248 53.2144 63.6309V97.3967C53.2144 101.331 54.0974 102.314 57.6295 102.314H125.032C130.625 102.314 132.979 104.937 132.979 111.165V146.242C132.979 152.471 130.625 154.766 125.032 154.766H57.6295C54.0974 154.766 53.2144 156.077 53.2144 159.683V227.215C53.2144 233.444 50.8598 235.738 45.2674 235.738Z" fill="url(#paint0_linear_0_1)" />
        <path d="M160.937 50.1901V14.7851C160.937 8.55649 163.586 6.26171 168.59 6.26171H298.097C303.69 6.26171 305.75 8.55649 305.75 14.7851V50.1901C305.75 56.4187 303.69 58.7135 298.097 58.7135H168.59C162.997 58.7135 160.937 56.4187 160.937 50.1901ZM160.937 138.047V102.97C160.937 96.741 162.997 94.1185 168.59 94.1185H298.097C303.69 94.1185 305.75 96.741 305.75 102.97V138.047C305.75 143.62 303.69 146.57 298.097 146.57H168.59C163.586 146.57 160.937 143.62 160.937 138.047ZM160.642 227.215V191.81C160.642 185.581 162.703 183.286 168.295 183.286H298.097C303.69 183.286 306.044 185.581 306.044 191.81V227.215C306.044 232.788 303.395 235.738 298.097 235.738H168.295C163.291 235.738 160.642 232.788 160.642 227.215Z" fill="url(#paint1_linear_0_1)" />
        <path d="M429.297 2C484.044 2 521.719 37.0771 521.719 107.231V227.215C521.719 233.444 519.364 235.738 513.772 235.738H478.157C473.154 235.738 470.505 232.788 470.505 227.215V176.73C470.505 172.796 469.327 171.813 466.089 171.813H391.034C387.502 171.813 386.619 172.796 386.619 176.73V227.215C386.619 233.444 384.264 235.738 378.672 235.738H343.057C338.053 235.738 335.404 232.788 335.404 227.215V107.231C335.404 38.3884 373.374 2 429.297 2ZM391.034 119.361H466.089C469.327 119.361 470.505 118.05 470.505 114.444V109.198C470.505 74.7769 455.788 54.4518 428.414 54.4518C401.336 54.4518 386.619 74.7769 386.619 109.198V114.444C386.619 118.05 387.502 119.361 391.034 119.361Z" fill="url(#paint2_linear_0_1)" />
        <path d="M701.687 58.7135H655.182C651.944 58.7135 650.767 60.0248 650.767 63.6309V227.215C650.767 232.788 648.706 235.738 643.114 235.738H607.205C602.201 235.738 599.552 232.788 599.552 227.215V63.6309C599.552 60.0248 598.375 58.7135 595.137 58.7135H548.632C543.629 58.7135 540.98 55.7631 540.98 50.1901V14.7851C540.98 8.55649 543.629 6.26171 548.632 6.26171H701.687C707.279 6.26171 709.34 8.55649 709.34 14.7851V50.1901C709.34 55.7631 707.279 58.7135 701.687 58.7135Z" fill="url(#paint3_linear_0_1)" />
        <path d="M819.587 240C765.135 240 728.343 206.562 728.343 137.391V14.7851C728.343 8.55649 730.992 6.26171 735.995 6.26171H771.61C777.203 6.26171 779.557 8.55649 779.557 14.7851V132.802C779.557 168.207 793.98 187.548 821.353 187.548C848.432 187.548 863.443 168.207 863.443 132.802V14.7851C863.443 8.55649 866.092 6.26171 871.096 6.26171H906.71C912.303 6.26171 914.657 8.55649 914.657 14.7851V136.736C914.657 204.595 876.099 240 819.587 240Z" fill="url(#paint4_linear_0_1)" />
        <path d="M994.845 235.738H959.231C954.227 235.738 951.578 232.788 951.578 227.215V14.7851C951.578 8.55649 954.227 6.26171 959.231 6.26171H1026.63C1088.15 6.26171 1118.17 30.8485 1118.17 83.3003C1118.17 110.837 1106.69 130.835 1083.44 143.292L1128.47 225.248C1129.95 227.543 1130.53 229.51 1130.53 231.149C1130.53 234.099 1128.18 235.738 1123.18 235.738H1084.91C1076.67 235.738 1074.02 234.099 1069.61 225.904L1022.51 134.769C1022.22 134.441 1020.75 131.163 1020.75 129.523C1020.75 127.229 1022.81 125.917 1026.63 125.262C1049.3 122.311 1065.19 110.182 1065.19 88.8733C1065.19 66.5813 1051.65 56.0909 1025.46 56.0909H1007.21C1003.68 56.0909 1002.79 57.0744 1002.79 61.0083V227.215C1002.79 233.444 1000.44 235.738 994.845 235.738Z" fill="url(#paint5_linear_0_1)" />
        <path d="M1141.27 50.1901V14.7851C1141.27 8.55649 1143.92 6.26171 1148.92 6.26171H1278.43C1284.02 6.26171 1286.08 8.55649 1286.08 14.7851V50.1901C1286.08 56.4187 1284.02 58.7135 1278.43 58.7135H1148.92C1143.33 58.7135 1141.27 56.4187 1141.27 50.1901ZM1141.27 138.047V102.97C1141.27 96.741 1143.33 94.1185 1148.92 94.1185H1278.43C1284.02 94.1185 1286.08 96.741 1286.08 102.97V138.047C1286.08 143.62 1284.02 146.57 1278.43 146.57H1148.92C1143.92 146.57 1141.27 143.62 1141.27 138.047ZM1140.98 227.215V191.81C1140.98 185.581 1143.04 183.286 1148.63 183.286H1278.43C1284.02 183.286 1286.38 185.581 1286.38 191.81V227.215C1286.38 232.788 1283.73 235.738 1278.43 235.738H1148.63C1143.63 235.738 1140.98 232.788 1140.98 227.215Z" fill="url(#paint6_linear_0_1)" />
        <path d="M1324.86 6.26171H1397.27C1468.79 6.26171 1510 50.1901 1510 118.377C1510 189.843 1466.44 235.738 1392.27 235.738H1324.86C1319.86 235.738 1317.21 232.788 1317.21 227.215V14.7851C1317.21 8.55649 1319.86 6.26171 1324.86 6.26171ZM1368.42 63.6309V178.369C1368.42 181.975 1369.31 183.286 1372.84 183.286H1391.97C1434.36 183.286 1457.02 159.683 1457.02 120.017C1457.02 82.6446 1434.36 58.7135 1393.15 58.7135H1372.84C1369.31 58.7135 1368.42 60.0248 1368.42 63.6309Z" fill="url(#paint7_linear_0_1)" />
        <path d="M45.2674 235.738H9.65273C4.64902 235.738 2 232.788 2 227.215V14.7851C2 8.55649 4.64902 6.26171 9.65273 6.26171H135.04C140.338 6.26171 142.987 9.21213 142.987 14.7851V50.1901C142.987 56.4187 140.632 58.7135 135.04 58.7135H57.6295C54.0974 58.7135 53.2144 60.0248 53.2144 63.6309V97.3967C53.2144 101.331 54.0974 102.314 57.6295 102.314H125.032C130.625 102.314 132.979 104.937 132.979 111.165V146.242C132.979 152.471 130.625 154.766 125.032 154.766H57.6295C54.0974 154.766 53.2144 156.077 53.2144 159.683V227.215C53.2144 233.444 50.8598 235.738 45.2674 235.738Z" stroke="white" stroke-width="4" mask="url(#path-1-outside-1_0_1)" />
        <path d="M160.937 50.1901V14.7851C160.937 8.55649 163.586 6.26171 168.59 6.26171H298.097C303.69 6.26171 305.75 8.55649 305.75 14.7851V50.1901C305.75 56.4187 303.69 58.7135 298.097 58.7135H168.59C162.997 58.7135 160.937 56.4187 160.937 50.1901ZM160.937 138.047V102.97C160.937 96.741 162.997 94.1185 168.59 94.1185H298.097C303.69 94.1185 305.75 96.741 305.75 102.97V138.047C305.75 143.62 303.69 146.57 298.097 146.57H168.59C163.586 146.57 160.937 143.62 160.937 138.047ZM160.642 227.215V191.81C160.642 185.581 162.703 183.286 168.295 183.286H298.097C303.69 183.286 306.044 185.581 306.044 191.81V227.215C306.044 232.788 303.395 235.738 298.097 235.738H168.295C163.291 235.738 160.642 232.788 160.642 227.215Z" stroke="white" stroke-width="4" mask="url(#path-1-outside-1_0_1)" />
        <path d="M429.297 2C484.044 2 521.719 37.0771 521.719 107.231V227.215C521.719 233.444 519.364 235.738 513.772 235.738H478.157C473.154 235.738 470.505 232.788 470.505 227.215V176.73C470.505 172.796 469.327 171.813 466.089 171.813H391.034C387.502 171.813 386.619 172.796 386.619 176.73V227.215C386.619 233.444 384.264 235.738 378.672 235.738H343.057C338.053 235.738 335.404 232.788 335.404 227.215V107.231C335.404 38.3884 373.374 2 429.297 2ZM391.034 119.361H466.089C469.327 119.361 470.505 118.05 470.505 114.444V109.198C470.505 74.7769 455.788 54.4518 428.414 54.4518C401.336 54.4518 386.619 74.7769 386.619 109.198V114.444C386.619 118.05 387.502 119.361 391.034 119.361Z" stroke="white" stroke-width="4" mask="url(#path-1-outside-1_0_1)" />
        <path d="M701.687 58.7135H655.182C651.944 58.7135 650.767 60.0248 650.767 63.6309V227.215C650.767 232.788 648.706 235.738 643.114 235.738H607.205C602.201 235.738 599.552 232.788 599.552 227.215V63.6309C599.552 60.0248 598.375 58.7135 595.137 58.7135H548.632C543.629 58.7135 540.98 55.7631 540.98 50.1901V14.7851C540.98 8.55649 543.629 6.26171 548.632 6.26171H701.687C707.279 6.26171 709.34 8.55649 709.34 14.7851V50.1901C709.34 55.7631 707.279 58.7135 701.687 58.7135Z" stroke="white" stroke-width="4" mask="url(#path-1-outside-1_0_1)" />
        <path d="M819.587 240C765.135 240 728.343 206.562 728.343 137.391V14.7851C728.343 8.55649 730.992 6.26171 735.995 6.26171H771.61C777.203 6.26171 779.557 8.55649 779.557 14.7851V132.802C779.557 168.207 793.98 187.548 821.353 187.548C848.432 187.548 863.443 168.207 863.443 132.802V14.7851C863.443 8.55649 866.092 6.26171 871.096 6.26171H906.71C912.303 6.26171 914.657 8.55649 914.657 14.7851V136.736C914.657 204.595 876.099 240 819.587 240Z" stroke="white" stroke-width="4" mask="url(#path-1-outside-1_0_1)" />
        <path d="M994.845 235.738H959.231C954.227 235.738 951.578 232.788 951.578 227.215V14.7851C951.578 8.55649 954.227 6.26171 959.231 6.26171H1026.63C1088.15 6.26171 1118.17 30.8485 1118.17 83.3003C1118.17 110.837 1106.69 130.835 1083.44 143.292L1128.47 225.248C1129.95 227.543 1130.53 229.51 1130.53 231.149C1130.53 234.099 1128.18 235.738 1123.18 235.738H1084.91C1076.67 235.738 1074.02 234.099 1069.61 225.904L1022.51 134.769C1022.22 134.441 1020.75 131.163 1020.75 129.523C1020.75 127.229 1022.81 125.917 1026.63 125.262C1049.3 122.311 1065.19 110.182 1065.19 88.8733C1065.19 66.5813 1051.65 56.0909 1025.46 56.0909H1007.21C1003.68 56.0909 1002.79 57.0744 1002.79 61.0083V227.215C1002.79 233.444 1000.44 235.738 994.845 235.738Z" stroke="white" stroke-width="4" mask="url(#path-1-outside-1_0_1)" />
        <path d="M1141.27 50.1901V14.7851C1141.27 8.55649 1143.92 6.26171 1148.92 6.26171H1278.43C1284.02 6.26171 1286.08 8.55649 1286.08 14.7851V50.1901C1286.08 56.4187 1284.02 58.7135 1278.43 58.7135H1148.92C1143.33 58.7135 1141.27 56.4187 1141.27 50.1901ZM1141.27 138.047V102.97C1141.27 96.741 1143.33 94.1185 1148.92 94.1185H1278.43C1284.02 94.1185 1286.08 96.741 1286.08 102.97V138.047C1286.08 143.62 1284.02 146.57 1278.43 146.57H1148.92C1143.92 146.57 1141.27 143.62 1141.27 138.047ZM1140.98 227.215V191.81C1140.98 185.581 1143.04 183.286 1148.63 183.286H1278.43C1284.02 183.286 1286.38 185.581 1286.38 191.81V227.215C1286.38 232.788 1283.73 235.738 1278.43 235.738H1148.63C1143.63 235.738 1140.98 232.788 1140.98 227.215Z" stroke="white" stroke-width="4" mask="url(#path-1-outside-1_0_1)" />
        <path d="M1324.86 6.26171H1397.27C1468.79 6.26171 1510 50.1901 1510 118.377C1510 189.843 1466.44 235.738 1392.27 235.738H1324.86C1319.86 235.738 1317.21 232.788 1317.21 227.215V14.7851C1317.21 8.55649 1319.86 6.26171 1324.86 6.26171ZM1368.42 63.6309V178.369C1368.42 181.975 1369.31 183.286 1372.84 183.286H1391.97C1434.36 183.286 1457.02 159.683 1457.02 120.017C1457.02 82.6446 1434.36 58.7135 1393.15 58.7135H1372.84C1369.31 58.7135 1368.42 60.0248 1368.42 63.6309Z" stroke="white" stroke-width="4" mask="url(#path-1-outside-1_0_1)" />
        </g>
        <g id="FeaturedRects">
        <rect id="rect1" y="4" width="145" height="234" fill="#282828" />
        <rect id="rect2" x="159" y="4" width="149" height="234" fill="#282828" />
        <rect id="rect3" x="1139" y="4" width="149" height="234" fill="#282828" />
        <rect id="rect4" x="333" width="191" height="238" fill="#282828" />
        <rect id="rect5" x="539" y="4" width="173" height="234" fill="#282828" />
        <rect id="rect6" x="726" y="4" width="191" height="238" fill="#282828" />
        <rect id="rect7" x="949" y="4" width="184" height="234" fill="#282828" />
        <rect id="rect8" x="1314" y="4" width="198" height="234" fill="#282828" />
        </g>
        <g id="Featured_3">
        <mask id="path-10-outside-2_0_1" maskUnits="userSpaceOnUse" x="0" y="0" width="1512" height="242" fill="black">
            <rect fill="white" width="1512" height="242" />
            <path d="M45.2674 235.738H9.65273C4.64902 235.738 2 232.788 2 227.215V14.7851C2 8.55649 4.64902 6.26171 9.65273 6.26171H135.04C140.338 6.26171 142.987 9.21213 142.987 14.7851V50.1901C142.987 56.4187 140.632 58.7135 135.04 58.7135H57.6295C54.0974 58.7135 53.2144 60.0248 53.2144 63.6309V97.3967C53.2144 101.331 54.0974 102.314 57.6295 102.314H125.032C130.625 102.314 132.979 104.937 132.979 111.165V146.242C132.979 152.471 130.625 154.766 125.032 154.766H57.6295C54.0974 154.766 53.2144 156.077 53.2144 159.683V227.215C53.2144 233.444 50.8598 235.738 45.2674 235.738Z" />
            <path d="M160.937 50.1901V14.7851C160.937 8.55649 163.586 6.26171 168.59 6.26171H298.097C303.69 6.26171 305.75 8.55649 305.75 14.7851V50.1901C305.75 56.4187 303.69 58.7135 298.097 58.7135H168.59C162.997 58.7135 160.937 56.4187 160.937 50.1901ZM160.937 138.047V102.97C160.937 96.7411 162.997 94.1185 168.59 94.1185H298.097C303.69 94.1185 305.75 96.7411 305.75 102.97V138.047C305.75 143.62 303.69 146.57 298.097 146.57H168.59C163.586 146.57 160.937 143.62 160.937 138.047ZM160.642 227.215V191.81C160.642 185.581 162.703 183.286 168.295 183.286H298.097C303.69 183.286 306.044 185.581 306.044 191.81V227.215C306.044 232.788 303.395 235.738 298.097 235.738H168.295C163.291 235.738 160.642 232.788 160.642 227.215Z" />
            <path d="M429.297 2C484.044 2 521.719 37.0771 521.719 107.231V227.215C521.719 233.444 519.364 235.738 513.772 235.738H478.157C473.154 235.738 470.505 232.788 470.505 227.215V176.73C470.505 172.796 469.327 171.813 466.089 171.813H391.034C387.502 171.813 386.619 172.796 386.619 176.73V227.215C386.619 233.444 384.264 235.738 378.672 235.738H343.057C338.053 235.738 335.404 232.788 335.404 227.215V107.231C335.404 38.3884 373.374 2 429.297 2ZM391.034 119.361H466.089C469.327 119.361 470.505 118.05 470.505 114.444V109.198C470.505 74.7769 455.788 54.4518 428.414 54.4518C401.336 54.4518 386.619 74.7769 386.619 109.198V114.444C386.619 118.05 387.502 119.361 391.034 119.361Z" />
            <path d="M701.687 58.7135H655.182C651.944 58.7135 650.767 60.0248 650.767 63.6309V227.215C650.767 232.788 648.706 235.738 643.114 235.738H607.205C602.201 235.738 599.552 232.788 599.552 227.215V63.6309C599.552 60.0248 598.375 58.7135 595.137 58.7135H548.632C543.629 58.7135 540.979 55.7631 540.979 50.1901V14.7851C540.979 8.55649 543.629 6.26171 548.632 6.26171H701.687C707.279 6.26171 709.34 8.55649 709.34 14.7851V50.1901C709.34 55.7631 707.279 58.7135 701.687 58.7135Z" />
            <path d="M819.587 240C765.135 240 728.343 206.562 728.343 137.391V14.7851C728.343 8.55649 730.992 6.26171 735.995 6.26171H771.61C777.203 6.26171 779.557 8.55649 779.557 14.7851V132.802C779.557 168.207 793.98 187.548 821.353 187.548C848.432 187.548 863.443 168.207 863.443 132.802V14.7851C863.443 8.55649 866.092 6.26171 871.096 6.26171H906.71C912.303 6.26171 914.657 8.55649 914.657 14.7851V136.736C914.657 204.595 876.099 240 819.587 240Z" />
            <path d="M994.845 235.738H959.231C954.227 235.738 951.578 232.788 951.578 227.215V14.7851C951.578 8.55649 954.227 6.26171 959.231 6.26171H1026.63C1088.15 6.26171 1118.17 30.8485 1118.17 83.3003C1118.17 110.837 1106.69 130.835 1083.44 143.292L1128.47 225.248C1129.95 227.543 1130.53 229.51 1130.53 231.149C1130.53 234.099 1128.18 235.738 1123.18 235.738H1084.91C1076.67 235.738 1074.02 234.099 1069.61 225.904L1022.51 134.769C1022.22 134.441 1020.75 131.163 1020.75 129.523C1020.75 127.229 1022.81 125.917 1026.63 125.262C1049.3 122.311 1065.19 110.182 1065.19 88.8733C1065.19 66.5813 1051.65 56.0909 1025.46 56.0909H1007.21C1003.68 56.0909 1002.79 57.0744 1002.79 61.0083V227.215C1002.79 233.444 1000.44 235.738 994.845 235.738Z" />
            <path d="M1141.27 50.1901V14.7851C1141.27 8.55649 1143.92 6.26171 1148.92 6.26171H1278.43C1284.02 6.26171 1286.08 8.55649 1286.08 14.7851V50.1901C1286.08 56.4187 1284.02 58.7135 1278.43 58.7135H1148.92C1143.33 58.7135 1141.27 56.4187 1141.27 50.1901ZM1141.27 138.047V102.97C1141.27 96.7411 1143.33 94.1185 1148.92 94.1185H1278.43C1284.02 94.1185 1286.08 96.7411 1286.08 102.97V138.047C1286.08 143.62 1284.02 146.57 1278.43 146.57H1148.92C1143.92 146.57 1141.27 143.62 1141.27 138.047ZM1140.98 227.215V191.81C1140.98 185.581 1143.04 183.286 1148.63 183.286H1278.43C1284.02 183.286 1286.38 185.581 1286.38 191.81V227.215C1286.38 232.788 1283.73 235.738 1278.43 235.738H1148.63C1143.63 235.738 1140.98 232.788 1140.98 227.215Z" />
            <path d="M1324.86 6.26171H1397.27C1468.79 6.26171 1510 50.1901 1510 118.377C1510 189.843 1466.44 235.738 1392.27 235.738H1324.86C1319.86 235.738 1317.21 232.788 1317.21 227.215V14.7851C1317.21 8.55649 1319.86 6.26171 1324.86 6.26171ZM1368.42 63.6309V178.369C1368.42 181.975 1369.31 183.286 1372.84 183.286H1391.97C1434.36 183.286 1457.02 159.683 1457.02 120.017C1457.02 82.6446 1434.36 58.7135 1393.15 58.7135H1372.84C1369.31 58.7135 1368.42 60.0248 1368.42 63.6309Z" />
        </mask>
        <path d="M45.2674 235.738H9.65273C4.64902 235.738 2 232.788 2 227.215V14.7851C2 8.55649 4.64902 6.26171 9.65273 6.26171H135.04C140.338 6.26171 142.987 9.21213 142.987 14.7851V50.1901C142.987 56.4187 140.632 58.7135 135.04 58.7135H57.6295C54.0974 58.7135 53.2144 60.0248 53.2144 63.6309V97.3967C53.2144 101.331 54.0974 102.314 57.6295 102.314H125.032C130.625 102.314 132.979 104.937 132.979 111.165V146.242C132.979 152.471 130.625 154.766 125.032 154.766H57.6295C54.0974 154.766 53.2144 156.077 53.2144 159.683V227.215C53.2144 233.444 50.8598 235.738 45.2674 235.738Z" stroke="white" stroke-width="4" mask="url(#path-10-outside-2_0_1)" />
        <path d="M160.937 50.1901V14.7851C160.937 8.55649 163.586 6.26171 168.59 6.26171H298.097C303.69 6.26171 305.75 8.55649 305.75 14.7851V50.1901C305.75 56.4187 303.69 58.7135 298.097 58.7135H168.59C162.997 58.7135 160.937 56.4187 160.937 50.1901ZM160.937 138.047V102.97C160.937 96.7411 162.997 94.1185 168.59 94.1185H298.097C303.69 94.1185 305.75 96.7411 305.75 102.97V138.047C305.75 143.62 303.69 146.57 298.097 146.57H168.59C163.586 146.57 160.937 143.62 160.937 138.047ZM160.642 227.215V191.81C160.642 185.581 162.703 183.286 168.295 183.286H298.097C303.69 183.286 306.044 185.581 306.044 191.81V227.215C306.044 232.788 303.395 235.738 298.097 235.738H168.295C163.291 235.738 160.642 232.788 160.642 227.215Z" stroke="white" stroke-width="4" mask="url(#path-10-outside-2_0_1)" />
        <path d="M429.297 2C484.044 2 521.719 37.0771 521.719 107.231V227.215C521.719 233.444 519.364 235.738 513.772 235.738H478.157C473.154 235.738 470.505 232.788 470.505 227.215V176.73C470.505 172.796 469.327 171.813 466.089 171.813H391.034C387.502 171.813 386.619 172.796 386.619 176.73V227.215C386.619 233.444 384.264 235.738 378.672 235.738H343.057C338.053 235.738 335.404 232.788 335.404 227.215V107.231C335.404 38.3884 373.374 2 429.297 2ZM391.034 119.361H466.089C469.327 119.361 470.505 118.05 470.505 114.444V109.198C470.505 74.7769 455.788 54.4518 428.414 54.4518C401.336 54.4518 386.619 74.7769 386.619 109.198V114.444C386.619 118.05 387.502 119.361 391.034 119.361Z" stroke="white" stroke-width="4" mask="url(#path-10-outside-2_0_1)" />
        <path d="M701.687 58.7135H655.182C651.944 58.7135 650.767 60.0248 650.767 63.6309V227.215C650.767 232.788 648.706 235.738 643.114 235.738H607.205C602.201 235.738 599.552 232.788 599.552 227.215V63.6309C599.552 60.0248 598.375 58.7135 595.137 58.7135H548.632C543.629 58.7135 540.979 55.7631 540.979 50.1901V14.7851C540.979 8.55649 543.629 6.26171 548.632 6.26171H701.687C707.279 6.26171 709.34 8.55649 709.34 14.7851V50.1901C709.34 55.7631 707.279 58.7135 701.687 58.7135Z" stroke="white" stroke-width="4" mask="url(#path-10-outside-2_0_1)" />
        <path d="M819.587 240C765.135 240 728.343 206.562 728.343 137.391V14.7851C728.343 8.55649 730.992 6.26171 735.995 6.26171H771.61C777.203 6.26171 779.557 8.55649 779.557 14.7851V132.802C779.557 168.207 793.98 187.548 821.353 187.548C848.432 187.548 863.443 168.207 863.443 132.802V14.7851C863.443 8.55649 866.092 6.26171 871.096 6.26171H906.71C912.303 6.26171 914.657 8.55649 914.657 14.7851V136.736C914.657 204.595 876.099 240 819.587 240Z" stroke="white" stroke-width="4" mask="url(#path-10-outside-2_0_1)" />
        <path d="M994.845 235.738H959.231C954.227 235.738 951.578 232.788 951.578 227.215V14.7851C951.578 8.55649 954.227 6.26171 959.231 6.26171H1026.63C1088.15 6.26171 1118.17 30.8485 1118.17 83.3003C1118.17 110.837 1106.69 130.835 1083.44 143.292L1128.47 225.248C1129.95 227.543 1130.53 229.51 1130.53 231.149C1130.53 234.099 1128.18 235.738 1123.18 235.738H1084.91C1076.67 235.738 1074.02 234.099 1069.61 225.904L1022.51 134.769C1022.22 134.441 1020.75 131.163 1020.75 129.523C1020.75 127.229 1022.81 125.917 1026.63 125.262C1049.3 122.311 1065.19 110.182 1065.19 88.8733C1065.19 66.5813 1051.65 56.0909 1025.46 56.0909H1007.21C1003.68 56.0909 1002.79 57.0744 1002.79 61.0083V227.215C1002.79 233.444 1000.44 235.738 994.845 235.738Z" stroke="white" stroke-width="4" mask="url(#path-10-outside-2_0_1)" />
        <path d="M1141.27 50.1901V14.7851C1141.27 8.55649 1143.92 6.26171 1148.92 6.26171H1278.43C1284.02 6.26171 1286.08 8.55649 1286.08 14.7851V50.1901C1286.08 56.4187 1284.02 58.7135 1278.43 58.7135H1148.92C1143.33 58.7135 1141.27 56.4187 1141.27 50.1901ZM1141.27 138.047V102.97C1141.27 96.7411 1143.33 94.1185 1148.92 94.1185H1278.43C1284.02 94.1185 1286.08 96.7411 1286.08 102.97V138.047C1286.08 143.62 1284.02 146.57 1278.43 146.57H1148.92C1143.92 146.57 1141.27 143.62 1141.27 138.047ZM1140.98 227.215V191.81C1140.98 185.581 1143.04 183.286 1148.63 183.286H1278.43C1284.02 183.286 1286.38 185.581 1286.38 191.81V227.215C1286.38 232.788 1283.73 235.738 1278.43 235.738H1148.63C1143.63 235.738 1140.98 232.788 1140.98 227.215Z" stroke="white" stroke-width="4" mask="url(#path-10-outside-2_0_1)" />
        <path d="M1324.86 6.26171H1397.27C1468.79 6.26171 1510 50.1901 1510 118.377C1510 189.843 1466.44 235.738 1392.27 235.738H1324.86C1319.86 235.738 1317.21 232.788 1317.21 227.215V14.7851C1317.21 8.55649 1319.86 6.26171 1324.86 6.26171ZM1368.42 63.6309V178.369C1368.42 181.975 1369.31 183.286 1372.84 183.286H1391.97C1434.36 183.286 1457.02 159.683 1457.02 120.017C1457.02 82.6446 1434.36 58.7135 1393.15 58.7135H1372.84C1369.31 58.7135 1368.42 60.0248 1368.42 63.6309Z" stroke="white" stroke-width="4" mask="url(#path-10-outside-2_0_1)" />
        </g>
    </g>
  <defs>
    <linearGradient id="paint0_linear_0_1" x1="756" y1="2" x2="756" y2="240" gradientUnits="userSpaceOnUse">
      <stop offset="0.427083" stop-color="#FF6B00" />
      <stop offset="1" stop-color="#FFE600" />
    </linearGradient>
    <linearGradient id="paint1_linear_0_1" x1="756" y1="2" x2="756" y2="240" gradientUnits="userSpaceOnUse">
      <stop offset="0.427083" stop-color="#FF6B00" />
      <stop offset="1" stop-color="#FFE600" />
    </linearGradient>
    <linearGradient id="paint2_linear_0_1" x1="756" y1="2" x2="756" y2="240" gradientUnits="userSpaceOnUse">
      <stop offset="0.427083" stop-color="#FF6B00" />
      <stop offset="1" stop-color="#FFE600" />
    </linearGradient>
    <linearGradient id="paint3_linear_0_1" x1="756" y1="2" x2="756" y2="240" gradientUnits="userSpaceOnUse">
      <stop offset="0.427083" stop-color="#FF6B00" />
      <stop offset="1" stop-color="#FFE600" />
    </linearGradient>
    <linearGradient id="paint4_linear_0_1" x1="756" y1="2" x2="756" y2="240" gradientUnits="userSpaceOnUse">
      <stop offset="0.427083" stop-color="#FF6B00" />
      <stop offset="1" stop-color="#FFE600" />
    </linearGradient>
    <linearGradient id="paint5_linear_0_1" x1="756" y1="2" x2="756" y2="240" gradientUnits="userSpaceOnUse">
      <stop offset="0.427083" stop-color="#FF6B00" />
      <stop offset="1" stop-color="#FFE600" />
    </linearGradient>
    <linearGradient id="paint6_linear_0_1" x1="756" y1="2" x2="756" y2="240" gradientUnits="userSpaceOnUse">
      <stop offset="0.427083" stop-color="#FF6B00" />
      <stop offset="1" stop-color="#FFE600" />
    </linearGradient>
    <linearGradient id="paint7_linear_0_1" x1="756" y1="2" x2="756" y2="240" gradientUnits="userSpaceOnUse">
      <stop offset="0.427083" stop-color="#FF6B00" />
      <stop offset="1" stop-color="#FFE600" />
    </linearGradient>
    <clipPath id="clip0_0_1">
      <rect width="1920" height="8640" fill="white" transform="translate(-206 -1373)" />
    </clipPath>
  </defs>
</svg>
